<svg xmlns="http://www.w3.org/2000/svg" width="14.589" height="13.818" viewBox="0 0 14.589 13.818">
  <path id="Trazado_1508" data-name="Trazado 1508" d="M13.98,3.811c.335.2,1.355.5,1.355.832a.817.817,0,0,1-.281.636,1.046,1.046,0,0,1-.725.252,1.441,1.441,0,0,1-.592-.118L1.784,0A1.416,1.416,0,0,1,1.133-.55,1.53,1.53,0,0,1,.9-1.394a1.408,1.408,0,0,1,.237-.8,1.447,1.447,0,0,1,.651-.533L13.738-8.14a1.61,1.61,0,0,1,.592-.148,1.046,1.046,0,0,1,.725.252.85.85,0,0,1,.281.666c0,.335.335,12.032,0,12.21L3.174-1.364Z" transform="translate(-0.896 8.288)" fill="#444"/>
</svg>
